<svg width="117" height="91" viewBox="0 0 117 91" fill="none" xmlns="http://www.w3.org/2000/svg">
<g clip-path="url(#clip0_236_30)">
<path d="M14.2179 56.3982H0V90.5232H14.2179V56.3982Z" fill="#2C2F36"/>
<path d="M116.153 56.3982H101.935V90.5232H116.153V56.3982Z" fill="#2C2F36"/>
<path d="M16.5296 56.3982L32.7455 90.5232H47.1632L57.7636 70.7107L68.2692 90.5232H82.1927L99.6075 56.3982H84.7902L74.3792 78.5032L63.4423 56.3982H52.2741L40.7484 78.5032L31.3469 56.3982H16.5296Z" fill="#2C2F36"/>
<path d="M35.621 38.2367L45.7061 65.9889L48.5665 60.4469L41.4681 28.5303L35.621 38.2367Z" fill="#A12933"/>
<path d="M49.7762 13.5869L46.5056 19.0132L43.4559 24.4396L49.5028 58.6277L51.301 55.1259H52.9731L52.8259 53.3696L49.7762 13.5869Z" fill="#A12933"/>
<path d="M73.5433 28.5303L66.5501 59.9737L69.4 65.6945L79.3904 38.2367L73.5433 28.5303Z" fill="#A12933"/>
<path d="M68.4951 19.0132L65.2351 13.5869L62.1854 53.3696L62.0381 55.1259H64.1309L65.6031 58.0704L71.5448 24.4396L68.4951 19.0132Z" fill="#A12933"/>
<path d="M57.3577 0.0210324L57.3367 0L52.352 8.46554L54.8864 55.1259H57.3577H59.808L62.3529 8.43399L57.3577 0.0210324Z" fill="#A12933"/>
</g>
<defs>
<clipPath id="clip0_236_30">
<rect width="117" height="91" fill="white"/>
</clipPath>
</defs>
</svg>
