<svg width="18" height="17" viewBox="0 0 18 17" fill="none" xmlns="http://www.w3.org/2000/svg">
<g clip-path="url(#clip0_322_26)">
<path d="M16.6211 17L10.6711 11.05C10.1989 11.4278 9.65586 11.7269 9.04197 11.9472C8.42808 12.1676 7.7748 12.2778 7.0822 12.2778C5.3665 12.2778 3.9146 11.6834 2.7265 10.4947C1.5384 9.30593 0.943999 7.854 0.943399 6.13889C0.942699 4.42378 1.5371 2.97185 2.7265 1.78311C3.9158 0.59437 5.3678 0 7.0822 0C8.79673 0 10.249 0.59437 11.439 1.78311C12.629 2.97185 13.223 4.42378 13.2211 6.13889C13.2211 6.83148 13.111 7.48472 12.8906 8.09861C12.6702 8.7125 12.3711 9.25556 11.9934 9.72778L17.9434 15.6778L16.6211 17ZM7.0822 10.3889C8.2628 10.3889 9.26643 9.97585 10.0931 9.14978C10.9198 8.3237 11.3329 7.32007 11.3323 6.13889C11.3316 4.9577 10.9186 3.95439 10.0931 3.12894C9.26769 2.3035 8.26406 1.89015 7.0822 1.88889C5.9004 1.88763 4.8971 2.30098 4.0723 3.12894C3.2475 3.95691 2.8341 4.96022 2.8322 6.13889C2.8304 7.31756 3.2437 8.32119 4.0723 9.14978C4.9009 9.97837 5.9042 10.3914 7.0822 10.3889Z" fill="#A12933"/>
</g>
<defs>
<clipPath id="clip0_322_26">
<rect width="18" height="17" fill="white" transform="matrix(-1 0 0 1 18 0)"/>
</clipPath>
</defs>
</svg>
