<svg width="18" height="17" viewBox="0 0 18 17" fill="none" xmlns="http://www.w3.org/2000/svg">
<path d="M1.37886 17L7.32886 11.05C7.80108 11.4278 8.34414 11.7269 8.95803 11.9472C9.57192 12.1676 10.2252 12.2778 10.9178 12.2778C12.6335 12.2778 14.0854 11.6834 15.2735 10.4947C16.4616 9.30593 17.056 7.854 17.0566 6.13889C17.0573 4.42378 16.4629 2.97185 15.2735 1.78311C14.0842 0.59437 12.6322 0 10.9178 0C9.20327 0 7.75103 0.59437 6.56103 1.78311C5.37103 2.97185 4.77697 4.42378 4.77886 6.13889C4.77886 6.83148 4.88905 7.48472 5.10942 8.09861C5.32979 8.7125 5.62886 9.25556 6.00664 9.72778L0.0566406 15.6778L1.37886 17ZM10.9178 10.3889C9.7372 10.3889 8.73357 9.97585 7.90686 9.14978C7.08016 8.3237 6.66712 7.32007 6.66775 6.13889C6.66838 4.9577 7.08142 3.95439 7.90686 3.12894C8.73231 2.3035 9.73594 1.89015 10.9178 1.88889C12.0996 1.88763 13.1029 2.30098 13.9277 3.12894C14.7525 3.95691 15.1659 4.96022 15.1678 6.13889C15.1696 7.31756 14.7563 8.32119 13.9277 9.14978C13.0991 9.97837 12.0958 10.3914 10.9178 10.3889Z" fill="#1E1E20"/>
</svg>
